<?xml version="1.0" encoding="iso-8859-1"?>
<!-- Generator: Adobe Illustrator 19.0.0, SVG Export Plug-In . SVG Version: 6.00 Build 0)  -->
<svg version="1.1" id="Layer_1" xmlns="http://www.w3.org/2000/svg" xmlns:xlink="http://www.w3.org/1999/xlink" x="0px" y="0px"
	 viewBox="0 0 512 512" style="enable-background:new 0 0 512 512;" xml:space="preserve">
<g>
	<path style="fill:#00B288;" d="M416.391,437.481c-4.587,0-8.306-3.718-8.306-8.306v-45.773c0-4.588,3.719-8.306,8.306-8.306
		c4.588,0,8.306,3.718,8.306,8.306v45.773C424.696,433.764,420.979,437.481,416.391,437.481z"/>
	<path style="fill:#00B288;" d="M382.455,437.481c-4.588,0-8.306-3.718-8.306-8.306v-45.773c0-4.588,3.718-8.306,8.306-8.306
		c4.588,0,8.306,3.718,8.306,8.306v45.773C390.76,433.764,387.043,437.481,382.455,437.481z"/>
	<path style="fill:#00B288;" d="M450.326,437.481c-4.588,0-8.306-3.718-8.306-8.306v-45.773c0-4.588,3.718-8.306,8.306-8.306
		c4.588,0,8.306,3.718,8.306,8.306v45.773C458.632,433.764,454.913,437.481,450.326,437.481z"/>
</g>
<path style="fill:#00945E;" d="M355.625,208.569v162.995c0,12.858,10.521,23.378,23.378,23.378h74.774
	c12.858,0,23.379-10.519,23.379-23.378V208.569H355.625z"/>
<path style="fill:#FF6D68;" d="M355.625,324.253v47.311c0,12.858,10.521,23.378,23.378,23.378h74.774
	c12.858,0,23.379-10.519,23.379-23.378v-47.311H355.625z"/>
<path style="fill:#F9BE00;" d="M376.583,264.503l-20.958,20.957v23.492l32.702-32.701c3.245-3.245,3.245-8.503,0.001-11.745
	C385.085,261.26,379.827,261.26,376.583,264.503z M466.01,268.343l-38.84-38.838c-3.245-3.243-8.503-3.243-11.746,0
	c-3.244,3.245-3.244,8.503,0,11.746l38.84,38.838c1.622,1.621,3.749,2.432,5.874,2.432c2.125,0,4.251-0.811,5.874-2.432
	C469.252,276.846,469.252,271.588,466.01,268.343z"/>
<path style="opacity:0.2;enable-background:new    ;" d="M355.625,208.569v162.995c0,12.858,10.521,23.378,23.378,23.378h51.054
	c12.858,0,23.379-10.519,23.379-23.378V235.378h23.72v-26.809H355.625z"/>
<path style="fill:#00945E;" d="M512,185.19c0,12.857-10.521,23.379-23.38,23.379H23.378C10.521,208.569,0,198.047,0,185.19V97.896
	c0-12.858,10.521-23.378,23.378-23.378h465.241c12.859,0,23.38,10.519,23.38,23.378v87.294H512z"/>
<path style="fill:#F9BE00;" d="M44.963,168.883l-35.23,35.23c3.849,2.79,8.557,4.455,13.646,4.455h5.392l27.939-27.939
	c3.244-3.245,3.244-8.503,0-11.746C53.465,165.643,48.207,165.641,44.963,168.883z M39.704,115.278c2.125,0,4.251-0.811,5.874-2.433
	c3.244-3.244,3.244-8.502-0.001-11.745L19.367,74.891C13.451,75.926,8.294,79.2,4.789,83.805l29.042,29.041
	C35.453,114.468,37.579,115.278,39.704,115.278z M143.398,118.824l-37.875,37.873c-3.245,3.244-3.245,8.503-0.001,11.745
	c1.622,1.622,3.748,2.433,5.874,2.433c2.125,0,4.251-0.811,5.873-2.432l37.875-37.873c3.245-3.244,3.245-8.503,0.001-11.745
	C151.901,115.583,146.642,115.582,143.398,118.824z M482.069,115.278c2.125,0,4.251-0.811,5.874-2.432l22.701-22.701
	c-1.927-5.431-5.791-9.96-10.775-12.718L476.196,101.1c-3.244,3.245-3.244,8.503,0,11.746
	C477.817,114.468,479.943,115.278,482.069,115.278z M466.849,143.043c-3.245-3.243-8.503-3.243-11.746,0
	c-3.244,3.245-3.244,8.503,0,11.746l48.397,48.398c4.499-3.73,7.575-9.109,8.313-15.182L466.849,143.043z M213.706,168.883
	l-39.687,39.686h23.494l27.939-27.939c3.244-3.245,3.244-8.503,0-11.746C222.209,165.643,216.951,165.641,213.706,168.883z
	 M354.812,122.879l-40.328,40.328c-3.245,3.245-3.245,8.503-0.001,11.746c1.622,1.622,3.747,2.433,5.874,2.433
	c2.125,0,4.251-0.811,5.874-2.432l40.327-40.329c3.245-3.245,3.245-8.503,0.001-11.745
	C363.315,119.636,358.057,119.635,354.812,122.879z M394.863,74.519h-23.494l32.173,32.173c1.622,1.621,3.749,2.432,5.874,2.432
	c2.125,0,4.251-0.811,5.874-2.432c3.244-3.245,3.244-8.503,0-11.746L394.863,74.519z M211.762,74.519h-23.494l41.25,41.252
	c1.622,1.621,3.748,2.432,5.874,2.432c2.125,0,4.251-0.811,5.874-2.432c3.244-3.245,3.244-8.503,0-11.746L211.762,74.519z"/>
<path style="opacity:0.1;enable-background:new    ;" d="M451.215,74.519H23.378C10.521,74.519,0,85.038,0,97.896v87.294
	c0,12.857,10.521,23.379,23.378,23.379h427.837c12.857,0,23.378-10.522,23.378-23.379V97.896
	C474.593,85.038,464.073,74.519,451.215,74.519z"/>
<g>
</g>
<g>
</g>
<g>
</g>
<g>
</g>
<g>
</g>
<g>
</g>
<g>
</g>
<g>
</g>
<g>
</g>
<g>
</g>
<g>
</g>
<g>
</g>
<g>
</g>
<g>
</g>
<g>
</g>
</svg>
